<svg width="253" height="84" viewBox="0 0 253 84" fill="none" xmlns="http://www.w3.org/2000/svg">
<path d="M0.5 61.7138V4.3822H154.335" stroke="#FFA9EB" stroke-miterlimit="10"/>
<path d="M247.737 14.4612V79.0526H71.2747" stroke="#FFA9EB" stroke-miterlimit="10"/>
<path d="M217.83 0.5H210.066V8.26443H217.83V0.5Z" stroke="#FFA9EB" stroke-miterlimit="10"/>
<path d="M234.725 0.5H226.96V8.26443H234.725V0.5Z" fill="#FFA9EB"/>
<path d="M251.619 0.5H243.855V8.26443H251.619V0.5Z" stroke="#FFA9EB" stroke-miterlimit="10"/>
<path d="M61.3034 74.6052H0.5V83.5H61.3034V74.6052Z" stroke="#FFA9EB" stroke-miterlimit="10"/>
<path d="M164.845 1.89276L159.859 6.87841" stroke="#FFA9EB" stroke-miterlimit="10"/>
<path d="M170.793 1.89276L165.814 6.87841" stroke="#FFA9EB" stroke-miterlimit="10"/>
<path d="M176.74 1.89276L171.761 6.87841" stroke="#FFA9EB" stroke-miterlimit="10"/>
<path d="M182.695 1.89276L177.709 6.87841" stroke="#FFA9EB" stroke-miterlimit="10"/>
<path d="M188.643 1.89276L183.657 6.87841" stroke="#FFA9EB" stroke-miterlimit="10"/>
<path d="M194.591 1.89276L189.612 6.87841" stroke="#FFA9EB" stroke-miterlimit="10"/>
<path d="M200.538 1.89276L195.559 6.87841" stroke="#FFA9EB" stroke-miterlimit="10"/>
</svg>
