<svg width="660" height="558" viewBox="0 0 660 558" fill="none" xmlns="http://www.w3.org/2000/svg">
<rect x="6.5" y="7.5" width="645" height="543" stroke="#FFA9EB"/>
<line x1="652.5" y1="7.00092" x2="651.5" y2="551.001" stroke="#FFA9EB"/>
<line x1="142.5" y1="7.00092" x2="141.5" y2="551.001" stroke="#FFA9EB"/>
<line x1="565.5" y1="86" x2="565.5" y2="439" stroke="#FFA9EB"/>
<line x1="651" y1="439.5" x2="7" y2="439.5" stroke="#FFA9EB"/>
<path d="M658.82 432H644V446.82H658.82V432Z" fill="#FFA9EB"/>
<path d="M572.82 432H558V446.82H572.82V432Z" fill="#FFA9EB"/>
<path d="M572.82 79H558V93.8203H572.82V79Z" fill="#FFA9EB"/>
<path d="M14.8203 432H0V446.82H14.8203V432Z" fill="#FFA9EB"/>
<path d="M150 432H135V447H150V432Z" fill="#FFA9EB"/>
<path d="M150 543H135V558H150V543Z" fill="#FFA9EB"/>
<line x1="651" y1="86.5" x2="7" y2="86.5" stroke="#FFA9EB"/>
<path d="M659.82 79H645V93.8203H659.82V79Z" fill="#FFA9EB"/>
<path d="M659.82 0H645V14.8203H659.82V0Z" fill="#FFA9EB"/>
<path d="M14.8203 79H0V93.8203H14.8203V79Z" fill="#FFA9EB"/>
<path d="M149.82 79H135V93.8203H149.82V79Z" fill="#FFA9EB"/>
<path d="M149.82 0H135V14.8203H149.82V0Z" fill="#FFA9EB"/>
</svg>
